G04*
G04 #@! TF.GenerationSoftware,Altium Limited,Altium Designer,22.2.1 (43)*
G04*
G04 Layer_Physical_Order=2*
G04 Layer_Color=16711680*
%FSLAX25Y25*%
%MOIN*%
G70*
G04*
G04 #@! TF.SameCoordinates,F70C61CB-F540-4537-8945-4C51125ABCB5*
G04*
G04*
G04 #@! TF.FilePolarity,Positive*
G04*
G01*
G75*
%ADD16C,0.01000*%
%ADD33C,0.02559*%
%ADD50C,0.00700*%
%ADD51C,0.01500*%
%ADD52C,0.00800*%
%ADD53C,0.06102*%
%ADD54C,0.05347*%
%ADD55C,0.05740*%
%ADD56R,0.07874X0.07874*%
%ADD57C,0.03000*%
G36*
X83847Y165550D02*
X83978Y165496D01*
Y129850D01*
X84067Y129401D01*
X84321Y129021D01*
X85254Y128088D01*
X85200Y127957D01*
Y127165D01*
X84840Y126947D01*
X84738Y126920D01*
X83080Y128578D01*
Y165610D01*
X83580Y165817D01*
X83847Y165550D01*
D02*
G37*
G36*
X199197Y803D02*
X77095D01*
Y166319D01*
X77033Y166631D01*
X76856Y166896D01*
X76592Y167072D01*
X76279Y167135D01*
X73261D01*
X73162Y167635D01*
X73803Y167900D01*
X74450Y168547D01*
X74800Y169393D01*
Y170308D01*
X74781Y170354D01*
X75205Y170637D01*
X79235Y166606D01*
Y124592D01*
X79325Y124143D01*
X79579Y123763D01*
X85254Y118088D01*
X85200Y117957D01*
Y117043D01*
X85550Y116197D01*
X86197Y115550D01*
X87042Y115200D01*
X87958D01*
X88803Y115550D01*
X89450Y116197D01*
X89800Y117043D01*
Y117957D01*
X89450Y118803D01*
X88803Y119450D01*
X88107Y119738D01*
Y120262D01*
X88803Y120550D01*
X89450Y121197D01*
X89800Y122043D01*
Y122958D01*
X89450Y123803D01*
X88803Y124450D01*
X88107Y124738D01*
Y125262D01*
X88803Y125550D01*
X89450Y126197D01*
X89800Y127042D01*
Y127957D01*
X89450Y128803D01*
X88803Y129450D01*
X87958Y129800D01*
X87042D01*
X86912Y129746D01*
X86322Y130336D01*
Y165496D01*
X86453Y165550D01*
X87100Y166197D01*
X87450Y167043D01*
Y167957D01*
X87100Y168803D01*
X86453Y169450D01*
X85607Y169800D01*
X84693D01*
X83847Y169450D01*
X83330Y168933D01*
X82776Y168911D01*
X82737Y168921D01*
X76829Y174829D01*
X76449Y175083D01*
X76000Y175172D01*
X56500D01*
X56051Y175083D01*
X55671Y174829D01*
X49947Y169105D01*
X49693Y168725D01*
X49604Y168276D01*
Y167135D01*
X45142D01*
X44774Y167233D01*
X43808D01*
X43440Y167135D01*
X37421D01*
X37109Y167072D01*
X36845Y166896D01*
X36668Y166631D01*
X36606Y166319D01*
Y162382D01*
X36668Y162070D01*
X36845Y161805D01*
X37109Y161628D01*
X37421Y161566D01*
X41206D01*
X41355Y161310D01*
X42038Y160626D01*
X42875Y160143D01*
X43808Y159893D01*
X44774D01*
X45708Y160143D01*
X46545Y160626D01*
X47228Y161310D01*
X47376Y161566D01*
X49604D01*
Y143762D01*
X43088Y137246D01*
X42957Y137300D01*
X42042D01*
X41197Y136950D01*
X40550Y136303D01*
X40200Y135458D01*
Y134543D01*
X40550Y133697D01*
X41197Y133050D01*
X42042Y132700D01*
X42957D01*
X43803Y133050D01*
X44450Y133697D01*
X44738Y134393D01*
X45262D01*
X45550Y133697D01*
X46197Y133050D01*
X47043Y132700D01*
X47958D01*
X48803Y133050D01*
X49450Y133697D01*
X49738Y134393D01*
X50262D01*
X50550Y133697D01*
X51197Y133050D01*
X52043Y132700D01*
X52957D01*
X53803Y133050D01*
X54450Y133697D01*
X54800Y134543D01*
Y135458D01*
X54746Y135588D01*
X55998Y136840D01*
X56252Y137220D01*
X56341Y137669D01*
Y161566D01*
X60104D01*
X60252Y161310D01*
X60935Y160626D01*
X61772Y160143D01*
X62706Y159893D01*
X63672D01*
X64606Y160143D01*
X65443Y160626D01*
X66126Y161310D01*
X66274Y161566D01*
X67590D01*
Y106111D01*
X20993D01*
Y128546D01*
X21455Y128737D01*
X23081Y127111D01*
X23462Y126857D01*
X23910Y126768D01*
X24074D01*
X24171Y126671D01*
X24551Y126417D01*
X25000Y126328D01*
X25449Y126417D01*
X25829Y126671D01*
X26083Y127051D01*
X26173Y127500D01*
X26083Y127949D01*
X25829Y128329D01*
X25389Y128769D01*
X25009Y129023D01*
X24560Y129113D01*
X24396D01*
X20993Y132516D01*
Y161566D01*
X22309D01*
X22457Y161310D01*
X23140Y160626D01*
X23977Y160143D01*
X24911Y159893D01*
X25877D01*
X26810Y160143D01*
X27647Y160626D01*
X28330Y161310D01*
X28479Y161566D01*
X30728D01*
X31040Y161628D01*
X31305Y161805D01*
X31482Y162070D01*
X31544Y162382D01*
Y166319D01*
X31482Y166631D01*
X31305Y166896D01*
X31040Y167072D01*
X30728Y167135D01*
X26245D01*
X25877Y167233D01*
X24911D01*
X24543Y167135D01*
X12303D01*
X11991Y167072D01*
X11726Y166896D01*
X11550Y166631D01*
X11488Y166319D01*
Y803D01*
X803D01*
Y181697D01*
X199197D01*
Y803D01*
D02*
G37*
%LPC*%
G36*
X187958Y159800D02*
X187042D01*
X186197Y159450D01*
X185550Y158803D01*
X185200Y157957D01*
Y157043D01*
X185550Y156197D01*
X186197Y155550D01*
X187042Y155200D01*
X187958D01*
X188088Y155254D01*
X188828Y154514D01*
Y142986D01*
X187014Y141173D01*
X148483D01*
X148331Y141665D01*
X148331Y141673D01*
X150829Y144171D01*
X151083Y144551D01*
X151172Y145000D01*
Y150496D01*
X151303Y150550D01*
X151950Y151197D01*
X152300Y152042D01*
Y152957D01*
X151950Y153803D01*
X151303Y154450D01*
X150458Y154800D01*
X149542D01*
X148697Y154450D01*
X148050Y153803D01*
X147700Y152957D01*
Y152042D01*
X148050Y151197D01*
X148697Y150550D01*
X148828Y150496D01*
Y145486D01*
X147014Y143673D01*
X135000D01*
X134551Y143583D01*
X134171Y143329D01*
X130978Y140136D01*
X130291Y140157D01*
X129948Y140500D01*
X129103Y140850D01*
X128188D01*
X127342Y140500D01*
X126696Y139853D01*
X126345Y139008D01*
Y138093D01*
X126696Y137247D01*
X127342Y136600D01*
X128188Y136250D01*
X128885D01*
X129043Y136018D01*
X129124Y135759D01*
X128917Y135449D01*
X128828Y135000D01*
Y129800D01*
X128358D01*
X127513Y129450D01*
X126866Y128803D01*
X126516Y127957D01*
Y127042D01*
X126866Y126197D01*
X127513Y125550D01*
X128358Y125200D01*
X129273D01*
X130119Y125550D01*
X130766Y126197D01*
X131116Y127042D01*
Y127957D01*
X130936Y128391D01*
X131083Y128611D01*
X131173Y129060D01*
Y134514D01*
X135486Y138828D01*
X187500D01*
X187949Y138917D01*
X188329Y139171D01*
X190829Y141671D01*
X191083Y142051D01*
X191173Y142500D01*
Y155000D01*
X191083Y155449D01*
X190829Y155829D01*
X189746Y156912D01*
X189800Y157043D01*
Y157957D01*
X189450Y158803D01*
X188803Y159450D01*
X187958Y159800D01*
D02*
G37*
G36*
X63696Y143005D02*
X62682D01*
X61703Y142742D01*
X60824Y142235D01*
X60107Y141518D01*
X59600Y140640D01*
X59338Y139661D01*
Y138646D01*
X59600Y137667D01*
X60107Y136789D01*
X60824Y136072D01*
X61703Y135565D01*
X62682Y135302D01*
X63696D01*
X64675Y135565D01*
X65554Y136072D01*
X66271Y136789D01*
X66778Y137667D01*
X67040Y138646D01*
Y139661D01*
X66778Y140640D01*
X66271Y141518D01*
X65554Y142235D01*
X64675Y142742D01*
X63696Y143005D01*
D02*
G37*
G36*
X25901D02*
X24887D01*
X23907Y142742D01*
X23029Y142235D01*
X22312Y141518D01*
X21805Y140640D01*
X21542Y139661D01*
Y138646D01*
X21805Y137667D01*
X22312Y136789D01*
X23029Y136072D01*
X23907Y135565D01*
X24887Y135302D01*
X25901D01*
X26880Y135565D01*
X27758Y136072D01*
X28475Y136789D01*
X28982Y137667D01*
X29245Y138646D01*
Y139661D01*
X28982Y140640D01*
X28475Y141518D01*
X27758Y142235D01*
X26880Y142742D01*
X25901Y143005D01*
D02*
G37*
G36*
X112958Y152300D02*
X112042D01*
X111197Y151950D01*
X110550Y151303D01*
X110200Y150458D01*
Y149542D01*
X110550Y148697D01*
X111197Y148050D01*
X111328Y147996D01*
Y139468D01*
X111135Y139388D01*
X110488Y138741D01*
X110138Y137895D01*
Y136980D01*
X110488Y136135D01*
X111135Y135488D01*
X111980Y135138D01*
X112895D01*
X113741Y135488D01*
X114388Y136135D01*
X114738Y136980D01*
Y137895D01*
X114388Y138741D01*
X113741Y139388D01*
X113672Y139416D01*
Y147996D01*
X113803Y148050D01*
X114450Y148697D01*
X114800Y149542D01*
Y150458D01*
X114450Y151303D01*
X113803Y151950D01*
X112958Y152300D01*
D02*
G37*
G36*
X97957Y129950D02*
X97043D01*
X96197Y129600D01*
X95550Y128953D01*
X95200Y128108D01*
Y127192D01*
X95550Y126347D01*
X95920Y125978D01*
Y119172D01*
X95550Y118803D01*
X95200Y117957D01*
Y117043D01*
X95550Y116197D01*
X96197Y115550D01*
X97043Y115200D01*
X97957D01*
X98803Y115550D01*
X99450Y116197D01*
X99800Y117043D01*
Y117957D01*
X99450Y118803D01*
X99080Y119172D01*
Y125978D01*
X99450Y126347D01*
X99800Y127192D01*
Y128108D01*
X99450Y128953D01*
X98803Y129600D01*
X97957Y129950D01*
D02*
G37*
G36*
Y102300D02*
X97043D01*
X96197Y101950D01*
X95550Y101303D01*
X95200Y100458D01*
Y99542D01*
X95550Y98697D01*
X95920Y98328D01*
Y92500D01*
X96040Y91895D01*
X96382Y91382D01*
X101383Y86383D01*
X101895Y86040D01*
X102500Y85920D01*
X122500D01*
X123105Y86040D01*
X123617Y86383D01*
X126118Y88882D01*
X126460Y89395D01*
X126580Y90000D01*
Y93328D01*
X126950Y93697D01*
X127300Y94542D01*
Y95458D01*
X126950Y96303D01*
X126303Y96950D01*
X125458Y97300D01*
X124542D01*
X123697Y96950D01*
X123050Y96303D01*
X122700Y95458D01*
Y94542D01*
X123050Y93697D01*
X123420Y93328D01*
Y90655D01*
X121845Y89080D01*
X103155D01*
X99080Y93155D01*
Y98328D01*
X99450Y98697D01*
X99800Y99542D01*
Y100458D01*
X99450Y101303D01*
X98803Y101950D01*
X97957Y102300D01*
D02*
G37*
G36*
X140457Y132300D02*
X139542D01*
X138697Y131950D01*
X138050Y131303D01*
X137700Y130457D01*
Y129543D01*
X138050Y128697D01*
X138420Y128328D01*
Y122500D01*
X138540Y121895D01*
X138883Y121382D01*
X147700Y112565D01*
Y112042D01*
X148050Y111197D01*
X148420Y110828D01*
Y80000D01*
X148540Y79395D01*
X148882Y78882D01*
X160723Y67042D01*
X160531Y66580D01*
X138155D01*
X134800Y69935D01*
Y70458D01*
X134450Y71303D01*
X134080Y71672D01*
Y74345D01*
X137435Y77700D01*
X137958D01*
X138803Y78050D01*
X139450Y78697D01*
X139800Y79542D01*
Y80458D01*
X139450Y81303D01*
X138803Y81950D01*
X137958Y82300D01*
X137042D01*
X136197Y81950D01*
X135550Y81303D01*
X135200Y80458D01*
Y79935D01*
X131383Y76117D01*
X131040Y75605D01*
X130920Y75000D01*
Y71672D01*
X130550Y71303D01*
X130200Y70458D01*
Y69542D01*
X130550Y68697D01*
X131197Y68050D01*
X132043Y67700D01*
X132565D01*
X136382Y63882D01*
X136895Y63540D01*
X137500Y63420D01*
X163328D01*
X163697Y63050D01*
X164542Y62700D01*
X165457D01*
X166303Y63050D01*
X166950Y63697D01*
X167300Y64543D01*
Y65457D01*
X166950Y66303D01*
X166303Y66950D01*
X165457Y67300D01*
X164935D01*
X151580Y80655D01*
Y110828D01*
X151950Y111197D01*
X152300Y112042D01*
Y112958D01*
X151950Y113803D01*
X151303Y114450D01*
X150458Y114800D01*
X149935D01*
X141580Y123155D01*
Y128328D01*
X141950Y128697D01*
X142300Y129543D01*
Y130457D01*
X141950Y131303D01*
X141303Y131950D01*
X140457Y132300D01*
D02*
G37*
G36*
Y117300D02*
X139542D01*
X138697Y116950D01*
X138050Y116303D01*
X137700Y115457D01*
Y114542D01*
X138050Y113697D01*
X138697Y113050D01*
X138828Y112996D01*
Y95486D01*
X136852Y93510D01*
X136635Y93365D01*
X126993Y83723D01*
X117500D01*
X117032Y83630D01*
X116635Y83365D01*
X104135Y70865D01*
X103870Y70468D01*
X103777Y70000D01*
X103828Y69744D01*
Y67004D01*
X103697Y66950D01*
X103050Y66303D01*
X102700Y65457D01*
Y64543D01*
X103050Y63697D01*
X103697Y63050D01*
X104543Y62700D01*
X105457D01*
X106303Y63050D01*
X106950Y63697D01*
X107300Y64543D01*
Y65457D01*
X106950Y66303D01*
X106303Y66950D01*
X106173Y67004D01*
Y69442D01*
X118007Y81277D01*
X127500D01*
X127968Y81370D01*
X128365Y81635D01*
X138365Y91635D01*
X138510Y91852D01*
X140829Y94171D01*
X141083Y94551D01*
X141173Y95000D01*
Y112996D01*
X141303Y113050D01*
X141950Y113697D01*
X142300Y114542D01*
Y115457D01*
X141950Y116303D01*
X141303Y116950D01*
X140457Y117300D01*
D02*
G37*
G36*
X82958Y54800D02*
X82042D01*
X81197Y54450D01*
X80550Y53803D01*
X80200Y52957D01*
Y52043D01*
X80550Y51197D01*
X81197Y50550D01*
X82042Y50200D01*
X82958D01*
X83088Y50254D01*
X86671Y46671D01*
X87051Y46417D01*
X87500Y46327D01*
X127996D01*
X128050Y46197D01*
X128697Y45550D01*
X129543Y45200D01*
X130457D01*
X131303Y45550D01*
X131950Y46197D01*
X132300Y47043D01*
Y47958D01*
X131950Y48803D01*
X131303Y49450D01*
X130457Y49800D01*
X129543D01*
X128697Y49450D01*
X128050Y48803D01*
X127996Y48673D01*
X87986D01*
X84746Y51912D01*
X84800Y52043D01*
Y52957D01*
X84450Y53803D01*
X83803Y54450D01*
X82958Y54800D01*
D02*
G37*
G36*
X177957Y37300D02*
X177042D01*
X176197Y36950D01*
X175828Y36580D01*
X159172D01*
X158803Y36950D01*
X157957Y37300D01*
X157043D01*
X156197Y36950D01*
X155550Y36303D01*
X155200Y35458D01*
Y34543D01*
X155550Y33697D01*
X156197Y33050D01*
X157043Y32700D01*
X157957D01*
X158803Y33050D01*
X159172Y33420D01*
X175828D01*
X176197Y33050D01*
X177042Y32700D01*
X177957D01*
X178803Y33050D01*
X179450Y33697D01*
X179800Y34543D01*
Y35458D01*
X179450Y36303D01*
X178803Y36950D01*
X177957Y37300D01*
D02*
G37*
G36*
X150458Y42300D02*
X149542D01*
X148697Y41950D01*
X148050Y41303D01*
X147700Y40457D01*
Y39542D01*
X148050Y38697D01*
X148697Y38050D01*
X149542Y37700D01*
X150458D01*
X151303Y38050D01*
X151927Y38675D01*
X186951D01*
X187700Y37925D01*
Y37042D01*
X188050Y36197D01*
X188697Y35550D01*
X189542Y35200D01*
X190457D01*
X191303Y35550D01*
X191950Y36197D01*
X192300Y37042D01*
Y37958D01*
X191950Y38803D01*
X191303Y39450D01*
X190457Y39800D01*
X189575D01*
X188437Y40937D01*
X188007Y41225D01*
X187500Y41326D01*
X151927D01*
X151303Y41950D01*
X150458Y42300D01*
D02*
G37*
G36*
X179292Y27335D02*
X178464D01*
X177700Y27019D01*
X177115Y26434D01*
X176798Y25670D01*
Y24842D01*
X177115Y24078D01*
X177700Y23493D01*
X178464Y23176D01*
X179292D01*
X180056Y23493D01*
X180641Y24078D01*
X180957Y24842D01*
Y25670D01*
X180641Y26434D01*
X180056Y27019D01*
X179292Y27335D01*
D02*
G37*
G36*
X156536D02*
X155708D01*
X154944Y27019D01*
X154359Y26434D01*
X154042Y25670D01*
Y24842D01*
X154359Y24078D01*
X154944Y23493D01*
X155708Y23176D01*
X156536D01*
X157300Y23493D01*
X157885Y24078D01*
X158202Y24842D01*
Y25670D01*
X157885Y26434D01*
X157300Y27019D01*
X156536Y27335D01*
D02*
G37*
%LPD*%
D16*
X150008Y40000D02*
X187500D01*
X190000Y37500D01*
D33*
X156122Y25256D02*
D03*
X178878D02*
D03*
D50*
X24560Y127940D02*
X25000Y127500D01*
X23910Y127940D02*
X24560D01*
X16240Y135610D02*
X23910Y127940D01*
X131082Y138583D02*
X135000Y142500D01*
X128645Y138550D02*
X128678Y138583D01*
X131082D01*
X130000Y135000D02*
X135000Y140000D01*
X130000Y129060D02*
Y135000D01*
X128816Y127500D02*
Y127876D01*
X130000Y129060D01*
X112500Y137500D02*
Y150000D01*
X112438Y137438D02*
X112500Y137500D01*
X190000Y142500D02*
Y155000D01*
X187500Y157500D02*
X190000Y155000D01*
X135000Y142500D02*
X147500D01*
X150000Y145000D01*
Y152500D01*
X135000Y140000D02*
X187500D01*
X190000Y142500D01*
X140000Y95000D02*
Y115000D01*
X137500Y92500D02*
X140000Y95000D01*
X87500Y47500D02*
X130000D01*
X82500Y52500D02*
X87500Y47500D01*
X105000Y65000D02*
Y70000D01*
X85150Y129850D02*
X87500Y127500D01*
X52500Y140000D02*
Y167500D01*
X57500Y172500D01*
X55169Y166795D02*
X58224Y169850D01*
X47500Y135000D02*
X52500Y140000D01*
X55169Y137669D02*
Y166795D01*
X52500Y135000D02*
X55169Y137669D01*
X58224Y169850D02*
X72500D01*
X57500Y172500D02*
X75000D01*
X56500Y174000D02*
X76000D01*
X80408Y124592D02*
Y167092D01*
X75000Y172500D02*
X80408Y167092D01*
X50776Y168276D02*
X56500Y174000D01*
X76000D02*
X81908Y168092D01*
X80408Y124592D02*
X87500Y117500D01*
X50776Y143276D02*
Y168276D01*
X42500Y135000D02*
X50776Y143276D01*
X81908Y128092D02*
Y168092D01*
Y128092D02*
X87500Y122500D01*
X85150Y129850D02*
Y167500D01*
X85000D02*
X85150D01*
D51*
X140000Y122500D02*
X150000Y112500D01*
X140000Y122500D02*
Y130000D01*
X122500Y87500D02*
X125000Y90000D01*
Y95000D01*
X102500Y87500D02*
X122500D01*
X97500Y92500D02*
Y100000D01*
Y92500D02*
X102500Y87500D01*
X132500Y70000D02*
Y75000D01*
X137500Y80000D01*
X132500Y70000D02*
X137500Y65000D01*
X150000Y80000D02*
X165000Y65000D01*
X150000Y80000D02*
Y112500D01*
X137500Y65000D02*
X165000D01*
X157500Y35000D02*
X177500D01*
X97500Y117500D02*
Y127650D01*
D52*
X117500Y82500D02*
X127500D01*
X137500Y92500D01*
X105000Y70000D02*
X117500Y82500D01*
D53*
X63189Y139154D02*
D03*
X25394D02*
D03*
D54*
X16240Y135610D02*
D03*
D55*
Y145453D02*
D03*
Y125768D02*
D03*
Y107264D02*
D03*
X25394Y163563D02*
D03*
X44291D02*
D03*
X63189D02*
D03*
X72342Y145453D02*
D03*
Y125768D02*
D03*
Y107264D02*
D03*
D56*
X16240Y96240D02*
D03*
Y56870D02*
D03*
Y17500D02*
D03*
X38583Y96240D02*
D03*
X50000Y17500D02*
D03*
X59842Y96240D02*
D03*
X72342Y37185D02*
D03*
Y76555D02*
D03*
Y115925D02*
D03*
Y155295D02*
D03*
D57*
X25000Y127500D02*
D03*
X128645Y138550D02*
D03*
X128816Y127500D02*
D03*
X112438Y137438D02*
D03*
X150000Y112500D02*
D03*
X112500Y170000D02*
D03*
X122500Y125000D02*
D03*
X117500Y132500D02*
D03*
X120000Y95000D02*
D03*
X132500Y70000D02*
D03*
X107500Y95000D02*
D03*
X150000Y127500D02*
D03*
X140000Y130000D02*
D03*
X155000Y135000D02*
D03*
X187500Y157500D02*
D03*
X150000Y152500D02*
D03*
X135000Y167500D02*
D03*
X107500Y162500D02*
D03*
X112500Y150000D02*
D03*
X165000Y65000D02*
D03*
X177500Y35000D02*
D03*
X190000Y37500D02*
D03*
X157500Y35000D02*
D03*
X185000D02*
D03*
X150000Y40000D02*
D03*
X167500Y47500D02*
D03*
X150000Y52500D02*
D03*
Y45000D02*
D03*
X140000Y115000D02*
D03*
X125000Y95000D02*
D03*
X137500Y80000D02*
D03*
X130000Y47500D02*
D03*
X82500Y52500D02*
D03*
X105000Y65000D02*
D03*
X87500Y127500D02*
D03*
X97500Y117500D02*
D03*
Y127650D02*
D03*
X52500Y135000D02*
D03*
X72500Y169850D02*
D03*
X47500Y135000D02*
D03*
X87500Y117500D02*
D03*
X42500Y135000D02*
D03*
X87500Y122500D02*
D03*
X85150Y167500D02*
D03*
X97500Y100000D02*
D03*
M02*
