G04*
G04 #@! TF.GenerationSoftware,Altium Limited,Altium Designer,22.2.1 (43)*
G04*
G04 Layer_Color=32768*
%FSLAX25Y25*%
%MOIN*%
G70*
G04*
G04 #@! TF.SameCoordinates,F70C61CB-F540-4537-8945-4C51125ABCB5*
G04*
G04*
G04 #@! TF.FilePolarity,Positive*
G04*
G01*
G75*
%ADD13C,0.00600*%
%ADD58C,0.00394*%
%ADD60C,0.00197*%
G36*
X179500Y168300D02*
X183000D01*
Y146700D01*
X179500D01*
Y145000D01*
X159500D01*
Y146700D01*
X156000D01*
Y168300D01*
X159500D01*
Y170000D01*
X179500D01*
Y168300D01*
D02*
G37*
D13*
X159500Y170000D02*
X179500D01*
Y168300D02*
Y170000D01*
Y168300D02*
X183000D01*
X156000Y146700D02*
Y168300D01*
X179500Y146700D02*
X183000D01*
X179500Y145000D02*
Y146700D01*
X159500Y145000D02*
X179500D01*
X159500D02*
Y146700D01*
X156000D02*
X159500D01*
X183000D02*
Y168300D01*
X156000D02*
X159500D01*
Y170000D01*
D58*
X92500Y165630D02*
Y169370D01*
X90630Y167500D02*
X94370D01*
X87776Y169665D02*
X97224D01*
X87776Y165335D02*
X97224D01*
X87776D02*
Y169665D01*
X97224Y165335D02*
Y169665D01*
X177835Y47224D02*
X182165D01*
X177835Y37776D02*
X182165D01*
Y47224D01*
X177835Y37776D02*
Y47224D01*
X180000Y40630D02*
Y44370D01*
X178130Y42500D02*
X181870D01*
X134724Y160335D02*
Y164665D01*
X125276Y160335D02*
Y164665D01*
Y160335D02*
X134724D01*
X125276Y164665D02*
X134724D01*
X128130Y162500D02*
X131870D01*
X130000Y160630D02*
Y164370D01*
X115276Y160335D02*
Y164665D01*
X124724Y160335D02*
Y164665D01*
X115276D02*
X124724D01*
X115276Y160335D02*
X124724D01*
X118130Y162500D02*
X121870D01*
X120000Y160630D02*
Y164370D01*
X187835Y50276D02*
X192165D01*
X187835Y59724D02*
X192165D01*
X187835Y50276D02*
Y59724D01*
X192165Y50276D02*
Y59724D01*
X190000Y53130D02*
Y56870D01*
X188130Y55000D02*
X191870D01*
X187835Y80020D02*
X192165D01*
X187835Y89468D02*
X192165D01*
X187835Y80020D02*
Y89468D01*
X192165Y80020D02*
Y89468D01*
X190000Y82874D02*
Y86614D01*
X188130Y84744D02*
X191870D01*
X115630Y155000D02*
X119370D01*
X117500Y153130D02*
Y156870D01*
X115335Y150276D02*
Y159724D01*
X119665Y150276D02*
Y159724D01*
X115335Y150276D02*
X119665D01*
X115335Y159724D02*
X119665D01*
X147500Y133130D02*
Y136870D01*
X145630Y135000D02*
X149370D01*
X142776Y137165D02*
X152224D01*
X142776Y132835D02*
X152224D01*
X142776D02*
Y137165D01*
X152224Y132835D02*
Y137165D01*
X147500Y120630D02*
Y124370D01*
X145630Y122500D02*
X149370D01*
X142776Y124665D02*
X152224D01*
X142776Y120335D02*
X152224D01*
X142776D02*
Y124665D01*
X152224Y120335D02*
Y124665D01*
X118130Y102500D02*
X121870D01*
X120000Y100630D02*
Y104370D01*
X122165Y97776D02*
Y107224D01*
X117835Y97776D02*
Y107224D01*
X122165D01*
X117835Y97776D02*
X122165D01*
X108130Y102500D02*
X111870D01*
X110000Y100630D02*
Y104370D01*
X112165Y97776D02*
Y107224D01*
X107835Y97776D02*
Y107224D01*
X112165D01*
X107835Y97776D02*
X112165D01*
X103130Y102500D02*
X106870D01*
X105000Y100630D02*
Y104370D01*
X107165Y97776D02*
Y107224D01*
X102835Y97776D02*
Y107224D01*
X107165D01*
X102835Y97776D02*
X107165D01*
X90276Y110335D02*
Y114665D01*
X99724Y110335D02*
Y114665D01*
X90276D02*
X99724D01*
X90276Y110335D02*
X99724D01*
X93130Y112500D02*
X96870D01*
X95000Y110630D02*
Y114370D01*
X90276Y130335D02*
Y134665D01*
X99724Y130335D02*
Y134665D01*
X90276D02*
X99724D01*
X90276Y130335D02*
X99724D01*
X93130Y132500D02*
X96870D01*
X95000Y130630D02*
Y134370D01*
X105630Y155000D02*
X109370D01*
X107500Y153130D02*
Y156870D01*
X105335Y150276D02*
Y159724D01*
X109665Y150276D02*
Y159724D01*
X105335Y150276D02*
X109665D01*
X105335Y159724D02*
X109665D01*
X127835Y90276D02*
X132165D01*
X127835Y99724D02*
X132165D01*
X127835Y90276D02*
Y99724D01*
X132165Y90276D02*
Y99724D01*
X130000Y93130D02*
Y96870D01*
X128130Y95000D02*
X131870D01*
X105335Y82776D02*
X109665D01*
X105335Y92224D02*
X109665D01*
X105335Y82776D02*
Y92224D01*
X109665Y82776D02*
Y92224D01*
X107500Y85630D02*
Y89370D01*
X105630Y87500D02*
X109370D01*
X120630Y155000D02*
X124370D01*
X122500Y153130D02*
Y156870D01*
X120335Y150276D02*
Y159724D01*
X124665Y150276D02*
Y159724D01*
X120335Y150276D02*
X124665D01*
X120335Y159724D02*
X124665D01*
X172835Y47224D02*
X177165D01*
X172835Y37776D02*
X177165D01*
Y47224D01*
X172835Y37776D02*
Y47224D01*
X175000Y40630D02*
Y44370D01*
X173130Y42500D02*
X176870D01*
X155630Y42500D02*
X159370D01*
X157500Y40630D02*
Y44370D01*
X159665Y37776D02*
Y47224D01*
X155335Y37776D02*
Y47224D01*
X159665D01*
X155335Y37776D02*
X159665D01*
X188130Y44744D02*
X191870D01*
X190000Y42874D02*
Y46614D01*
X192165Y40020D02*
Y49468D01*
X187835Y40020D02*
Y49468D01*
X192165D01*
X187835Y40020D02*
X192165D01*
X142776Y115335D02*
Y119665D01*
X152224Y115335D02*
Y119665D01*
X142776D02*
X152224D01*
X142776Y115335D02*
X152224D01*
X145630Y117500D02*
X149370D01*
X147500Y115630D02*
Y119370D01*
X102835Y59469D02*
X107165D01*
X102835Y50020D02*
X107165D01*
Y59469D01*
X102835Y50020D02*
Y59469D01*
X105000Y52874D02*
Y56614D01*
X103130Y54744D02*
X106870D01*
X135335Y59724D02*
X139665D01*
X135335Y50276D02*
X139665D01*
Y59724D01*
X135335Y50276D02*
Y59724D01*
X137500Y53130D02*
Y56870D01*
X135630Y55000D02*
X139370D01*
X140335Y59724D02*
X144665D01*
X140335Y50276D02*
X144665D01*
Y59724D01*
X140335Y50276D02*
Y59724D01*
X142500Y53130D02*
Y56870D01*
X140630Y55000D02*
X144370D01*
X117520Y75335D02*
Y79665D01*
X126969Y75335D02*
Y79665D01*
X117520D02*
X126969D01*
X117520Y75335D02*
X126969D01*
X120374Y77500D02*
X124114D01*
X122244Y75630D02*
Y79370D01*
X90020Y75335D02*
Y79665D01*
X99468Y75335D02*
Y79665D01*
X90020D02*
X99468D01*
X90020Y75335D02*
X99468D01*
X92874Y77500D02*
X96614D01*
X94744Y75630D02*
Y79370D01*
X100630Y155000D02*
X104370D01*
X102500Y153130D02*
Y156870D01*
X104665Y150276D02*
Y159724D01*
X100335Y150276D02*
Y159724D01*
X104665D01*
X100335Y150276D02*
X104665D01*
X165532Y67500D02*
X169468D01*
X167500Y65531D02*
Y69468D01*
D60*
X109508Y4331D02*
Y45669D01*
X135492D01*
Y4331D02*
Y45669D01*
X109508Y4331D02*
X135492D01*
X82008D02*
Y45669D01*
X107992D01*
Y4331D02*
Y45669D01*
X82008Y4331D02*
X107992D01*
X160984Y92539D02*
X184016D01*
X160984Y129232D02*
X184016D01*
X160984Y92539D02*
Y129232D01*
X184016Y92539D02*
Y129232D01*
X180689Y50768D02*
Y84232D01*
X154311Y50768D02*
X180689D01*
X154311Y84232D02*
X180689D01*
X154311Y50768D02*
Y84232D01*
X104252Y112815D02*
Y145138D01*
X136575Y112815D02*
Y145138D01*
X104252Y112815D02*
X136575D01*
X104252Y145138D02*
X136575D01*
X11319Y168681D02*
X77264D01*
Y-29154D02*
Y168681D01*
X11319Y-29154D02*
X77264D01*
X11319D02*
Y168681D01*
M02*
