M48
;Layer_Color=9474304
;FILE_FORMAT=2:4
INCH,TZ
;TYPE=PLATED
T1F00S00C0.0150
T2F00S00C0.0335
T3F00S00C0.0374
T4F00S00C0.0413
;TYPE=NON_PLATED
T5F00S00C0.0256
T6F00S00C0.0610
%
T01
X8250Y5250
X13000Y4750
X15000Y4500
Y4000
X15750Y3500
X17750
X18500
X19000Y3750
X16750Y4750
X15000Y5250
X16500Y6500
X13250Y7000
X13750Y8000
X12500Y9500
X12000
X10750
X9750Y10000
Y11750
X8750
Y12250
Y12750
X9750Y12765
X11244Y13744
X11750Y13250
X12250Y12500
X12882Y12750
X12865Y13855
X14000Y13000
X15000Y12750
X15500Y13500
X15000Y15250
X13500Y16750
X11250Y17000
X10750Y16250
X11250Y15000
X8515Y16750
X7250Y16985
X14000Y11500
X15000Y11250
X18750Y15750
X10500Y6500
X5250Y13500
X4750
X4250
X2500Y12750
T02
X1624Y13561
T03
X7234Y10726
Y12577
Y14545
X6319Y16356
X4429
X2539
X1624Y14545
Y12577
Y10726
T04
X1624Y1750
X5000
X7234Y3719
Y7656
X5984Y9624
X7234Y11593
Y15530
X3858Y9624
X1624
Y5687
T05
X15612Y2526
X17888
T06
X6319Y13915
X2539
M30
