G04*
G04 #@! TF.GenerationSoftware,Altium Limited,Altium Designer,22.2.1 (43)*
G04*
G04 Layer_Color=255*
%FSLAX25Y25*%
%MOIN*%
G70*
G04*
G04 #@! TF.SameCoordinates,1C25F414-B9C3-4C75-A36B-C8DD24576EA7*
G04*
G04*
G04 #@! TF.FilePolarity,Positive*
G04*
G01*
G75*
%ADD17R,0.11000X0.03000*%
%ADD18R,0.03150X0.03543*%
%ADD19R,0.05118X0.04331*%
%ADD20R,0.08583X0.07874*%
%ADD21R,0.02362X0.04528*%
%ADD22R,0.01181X0.04528*%
%ADD23R,0.05906X0.06890*%
%ADD24R,0.03543X0.03150*%
%ADD25R,0.10236X0.05906*%
G04:AMPARAMS|DCode=26|XSize=64.96mil|YSize=22.84mil|CornerRadius=2.85mil|HoleSize=0mil|Usage=FLASHONLY|Rotation=270.000|XOffset=0mil|YOffset=0mil|HoleType=Round|Shape=RoundedRectangle|*
%AMROUNDEDRECTD26*
21,1,0.06496,0.01713,0,0,270.0*
21,1,0.05925,0.02284,0,0,270.0*
1,1,0.00571,-0.00856,-0.02963*
1,1,0.00571,-0.00856,0.02963*
1,1,0.00571,0.00856,0.02963*
1,1,0.00571,0.00856,-0.02963*
%
%ADD26ROUNDEDRECTD26*%
%ADD27R,0.14961X0.07874*%
%ADD28R,0.05906X0.07874*%
G04:AMPARAMS|DCode=30|XSize=33.07mil|YSize=7.87mil|CornerRadius=0.98mil|HoleSize=0mil|Usage=FLASHONLY|Rotation=180.000|XOffset=0mil|YOffset=0mil|HoleType=Round|Shape=RoundedRectangle|*
%AMROUNDEDRECTD30*
21,1,0.03307,0.00591,0,0,180.0*
21,1,0.03110,0.00787,0,0,180.0*
1,1,0.00197,-0.01555,0.00295*
1,1,0.00197,0.01555,0.00295*
1,1,0.00197,0.01555,-0.00295*
1,1,0.00197,-0.01555,-0.00295*
%
%ADD30ROUNDEDRECTD30*%
G04:AMPARAMS|DCode=31|XSize=7.87mil|YSize=33.07mil|CornerRadius=0.98mil|HoleSize=0mil|Usage=FLASHONLY|Rotation=180.000|XOffset=0mil|YOffset=0mil|HoleType=Round|Shape=RoundedRectangle|*
%AMROUNDEDRECTD31*
21,1,0.00787,0.03110,0,0,180.0*
21,1,0.00591,0.03307,0,0,180.0*
1,1,0.00197,-0.00295,0.01555*
1,1,0.00197,0.00295,0.01555*
1,1,0.00197,0.00295,-0.01555*
1,1,0.00197,-0.00295,-0.01555*
%
%ADD31ROUNDEDRECTD31*%
%ADD32R,0.01968X0.07874*%
%ADD44C,0.02559*%
%ADD50R,0.12205X0.12205*%
%ADD54C,0.06102*%
%ADD55C,0.05347*%
%ADD56C,0.05740*%
%ADD57R,0.07874X0.07874*%
D17*
X161500Y167500D02*
D03*
X177500D02*
D03*
X161500Y162500D02*
D03*
X177500D02*
D03*
X161500Y157500D02*
D03*
X177500D02*
D03*
X161500Y152500D02*
D03*
X177500D02*
D03*
X161500Y147500D02*
D03*
X177500D02*
D03*
D18*
X89744Y167500D02*
D03*
X95256D02*
D03*
X132756Y162500D02*
D03*
X127244D02*
D03*
X117244Y162500D02*
D03*
X122756D02*
D03*
X144744Y135000D02*
D03*
X150256D02*
D03*
X144744Y122500D02*
D03*
X150256D02*
D03*
X92500Y110000D02*
D03*
X98012D02*
D03*
X92244Y132500D02*
D03*
X97756D02*
D03*
X144744Y117500D02*
D03*
X150256D02*
D03*
X119488Y77500D02*
D03*
X125000D02*
D03*
X91988D02*
D03*
X97500D02*
D03*
D19*
X129528Y168957D02*
D03*
X120472D02*
D03*
Y176043D02*
D03*
X129528D02*
D03*
D20*
X147382Y11752D02*
D03*
X187618D02*
D03*
X147382Y27224D02*
D03*
X187618D02*
D03*
D21*
X154902Y29488D02*
D03*
X180098D02*
D03*
X158051D02*
D03*
X176949D02*
D03*
D22*
X160610D02*
D03*
X162579D02*
D03*
X164547D02*
D03*
X166516D02*
D03*
X168484D02*
D03*
X170453D02*
D03*
X172421D02*
D03*
X174390D02*
D03*
D23*
X113642Y41240D02*
D03*
X131358D02*
D03*
Y8760D02*
D03*
X113642D02*
D03*
X86142Y41240D02*
D03*
X103858D02*
D03*
Y8760D02*
D03*
X86142D02*
D03*
D24*
X180000Y45256D02*
D03*
Y39744D02*
D03*
X190000Y52244D02*
D03*
Y57756D02*
D03*
X190000Y81988D02*
D03*
Y87500D02*
D03*
X117500Y152244D02*
D03*
Y157756D02*
D03*
X120000Y105256D02*
D03*
Y99744D02*
D03*
X110000Y105256D02*
D03*
Y99744D02*
D03*
X105000Y105256D02*
D03*
Y99744D02*
D03*
X107500Y152244D02*
D03*
Y157756D02*
D03*
X130000Y92244D02*
D03*
Y97756D02*
D03*
X107500Y84744D02*
D03*
Y90256D02*
D03*
X122500Y152244D02*
D03*
Y157756D02*
D03*
X175000Y45256D02*
D03*
Y39744D02*
D03*
X157500Y45256D02*
D03*
Y39744D02*
D03*
X190000Y47500D02*
D03*
Y41988D02*
D03*
X105000Y57500D02*
D03*
Y51988D02*
D03*
X137500Y57756D02*
D03*
Y52244D02*
D03*
X142500Y57756D02*
D03*
Y52244D02*
D03*
X102500Y157756D02*
D03*
Y152244D02*
D03*
D25*
X122500Y55689D02*
D03*
Y67500D02*
D03*
X95000Y55689D02*
D03*
Y67500D02*
D03*
D26*
X180000Y96772D02*
D03*
X175000D02*
D03*
X170000D02*
D03*
X165000D02*
D03*
Y125000D02*
D03*
X170000D02*
D03*
X175000D02*
D03*
X180000D02*
D03*
D27*
X167500Y79902D02*
D03*
D28*
X176555Y55098D02*
D03*
X167500D02*
D03*
X158445D02*
D03*
D30*
X106890Y118740D02*
D03*
Y120315D02*
D03*
Y121890D02*
D03*
Y123465D02*
D03*
Y125039D02*
D03*
Y126614D02*
D03*
Y128189D02*
D03*
Y129764D02*
D03*
Y131339D02*
D03*
Y132913D02*
D03*
Y134488D02*
D03*
Y136063D02*
D03*
Y137638D02*
D03*
Y139213D02*
D03*
X133937D02*
D03*
Y137638D02*
D03*
Y136063D02*
D03*
Y134488D02*
D03*
Y132913D02*
D03*
Y131339D02*
D03*
Y129764D02*
D03*
Y128189D02*
D03*
Y126614D02*
D03*
Y125039D02*
D03*
Y123465D02*
D03*
Y121890D02*
D03*
Y120315D02*
D03*
Y118740D02*
D03*
D31*
X130650Y115453D02*
D03*
X129075D02*
D03*
X127500D02*
D03*
X125925D02*
D03*
X124350D02*
D03*
X122776D02*
D03*
X121201D02*
D03*
X119626D02*
D03*
X118051D02*
D03*
X116476D02*
D03*
X114902D02*
D03*
X113327D02*
D03*
X111752D02*
D03*
X110177D02*
D03*
Y142500D02*
D03*
X111752D02*
D03*
X113327D02*
D03*
X114902D02*
D03*
X116476D02*
D03*
X118051D02*
D03*
X119626D02*
D03*
X121201D02*
D03*
X122776D02*
D03*
X124350D02*
D03*
X125925D02*
D03*
X127500D02*
D03*
X129075D02*
D03*
X130650D02*
D03*
D32*
X30906Y123012D02*
D03*
X34055D02*
D03*
X37205D02*
D03*
X40354D02*
D03*
X43504D02*
D03*
X46654D02*
D03*
X49803D02*
D03*
X52953D02*
D03*
X56102D02*
D03*
X59252D02*
D03*
X57677Y155295D02*
D03*
X54528D02*
D03*
X51378D02*
D03*
X48228D02*
D03*
X45079D02*
D03*
X41929D02*
D03*
X38780D02*
D03*
X35630D02*
D03*
X32480D02*
D03*
X29331D02*
D03*
D44*
X156122Y25256D02*
D03*
X178878D02*
D03*
D50*
X120413Y128976D02*
D03*
D54*
X63189Y139154D02*
D03*
X25394D02*
D03*
D55*
X16240Y135610D02*
D03*
D56*
Y145453D02*
D03*
Y125768D02*
D03*
Y107264D02*
D03*
X25394Y163563D02*
D03*
X44291D02*
D03*
X63189D02*
D03*
X72342Y145453D02*
D03*
Y125768D02*
D03*
Y107264D02*
D03*
D57*
X16240Y96240D02*
D03*
Y56870D02*
D03*
Y17500D02*
D03*
X38583Y96240D02*
D03*
X50000Y17500D02*
D03*
X59842Y96240D02*
D03*
X72342Y37185D02*
D03*
Y76555D02*
D03*
Y115925D02*
D03*
Y155295D02*
D03*
M02*
