G04*
G04 #@! TF.GenerationSoftware,Altium Limited,Altium Designer,22.2.1 (43)*
G04*
G04 Layer_Color=16711935*
%FSLAX25Y25*%
%MOIN*%
G70*
G04*
G04 #@! TF.SameCoordinates,1C25F414-B9C3-4C75-A36B-C8DD24576EA7*
G04*
G04*
G04 #@! TF.FilePolarity,Positive*
G04*
G01*
G75*
%ADD11C,0.00787*%
%ADD14C,0.00500*%
%ADD15C,0.00300*%
%ADD60C,0.00394*%
%ADD61C,0.00100*%
D11*
X114035Y2854D02*
X113248D01*
X114035D01*
X86535D02*
X85748D01*
X86535D01*
X180394Y131496D02*
X179606D01*
X180394D01*
X138425Y118740D02*
X137638D01*
X138425D01*
D14*
X110492Y12992D02*
Y37008D01*
X134508D01*
Y12992D02*
Y37008D01*
X110492Y12992D02*
X134508D01*
X82992D02*
Y37008D01*
X107008D01*
Y12992D02*
Y37008D01*
X82992Y12992D02*
X107008D01*
X162185Y100472D02*
X182815D01*
X162185Y121299D02*
X182815D01*
X162185Y100472D02*
Y121299D01*
X182815Y100472D02*
Y121299D01*
X134193Y115197D02*
Y142756D01*
X106634Y115197D02*
Y142756D01*
Y115197D02*
X134193D01*
X106634Y142756D02*
X134193D01*
X15748Y163563D02*
X72835D01*
Y-28169D02*
Y163563D01*
X15748Y-28169D02*
X72835D01*
X15748D02*
Y163563D01*
D15*
X175000Y171168D02*
Y174500D01*
X178332Y171168D01*
X179165D01*
X179998Y172001D01*
Y173667D01*
X179165Y174500D01*
X159000D02*
Y172834D01*
Y173667D01*
X163998D01*
X163165Y174500D01*
X175000Y143000D02*
Y141334D01*
Y142167D01*
X179998D01*
X179165Y143000D01*
Y138835D02*
X179998Y138002D01*
Y136336D01*
X179165Y135502D01*
X175833D01*
X175000Y136336D01*
Y138002D01*
X175833Y138835D01*
X179165D01*
X159833Y143000D02*
X159000Y142167D01*
Y140501D01*
X159833Y139668D01*
X163165D01*
X163998Y140501D01*
Y142167D01*
X163165Y143000D01*
X162332D01*
X161499Y142167D01*
Y139668D01*
D60*
X89055Y169370D02*
X95945D01*
X89055Y165630D02*
X95945D01*
X89055D02*
Y169370D01*
X95945Y165630D02*
Y169370D01*
X178130Y45945D02*
X181870D01*
X178130Y39055D02*
X181870D01*
Y45945D01*
X178130Y39055D02*
Y45945D01*
X133445Y160630D02*
Y164370D01*
X126555Y160630D02*
Y164370D01*
Y160630D02*
X133445D01*
X126555Y164370D02*
X133445D01*
X116555Y160630D02*
Y164370D01*
X123445Y160630D02*
Y164370D01*
X116555D02*
X123445D01*
X116555Y160630D02*
X123445D01*
X188130Y51555D02*
X191870D01*
X188130Y58445D02*
X191870D01*
X188130Y51555D02*
Y58445D01*
X191870Y51555D02*
Y58445D01*
X188130Y81299D02*
X191870D01*
X188130Y88189D02*
X191870D01*
X188130Y81299D02*
Y88189D01*
X191870Y81299D02*
Y88189D01*
X115630Y151555D02*
Y158445D01*
X119370Y151555D02*
Y158445D01*
X115630Y151555D02*
X119370D01*
X115630Y158445D02*
X119370D01*
X144055Y136870D02*
X150945D01*
X144055Y133130D02*
X150945D01*
X144055D02*
Y136870D01*
X150945Y133130D02*
Y136870D01*
X144055Y124370D02*
X150945D01*
X144055Y120630D02*
X150945D01*
X144055D02*
Y124370D01*
X150945Y120630D02*
Y124370D01*
X121870Y99055D02*
Y105945D01*
X118130Y99055D02*
Y105945D01*
X121870D01*
X118130Y99055D02*
X121870D01*
X111870D02*
Y105945D01*
X108130Y99055D02*
Y105945D01*
X111870D01*
X108130Y99055D02*
X111870D01*
X106870D02*
Y105945D01*
X103130Y99055D02*
Y105945D01*
X106870D01*
X103130Y99055D02*
X106870D01*
X91811Y108130D02*
Y111870D01*
X98701Y108130D02*
Y111870D01*
X91811D02*
X98701D01*
X91811Y108130D02*
X98701D01*
X91555Y130630D02*
Y134370D01*
X98445Y130630D02*
Y134370D01*
X91555D02*
X98445D01*
X91555Y130630D02*
X98445D01*
X105630Y151555D02*
Y158445D01*
X109370Y151555D02*
Y158445D01*
X105630Y151555D02*
X109370D01*
X105630Y158445D02*
X109370D01*
X128130Y91555D02*
X131870D01*
X128130Y98445D02*
X131870D01*
X128130Y91555D02*
Y98445D01*
X131870Y91555D02*
Y98445D01*
X105630Y84055D02*
X109370D01*
X105630Y90945D02*
X109370D01*
X105630Y84055D02*
Y90945D01*
X109370Y84055D02*
Y90945D01*
X120630Y151555D02*
Y158445D01*
X124370Y151555D02*
Y158445D01*
X120630Y151555D02*
X124370D01*
X120630Y158445D02*
X124370D01*
X173130Y45945D02*
X176870D01*
X173130Y39055D02*
X176870D01*
Y45945D01*
X173130Y39055D02*
Y45945D01*
X159370Y39055D02*
Y45945D01*
X155630Y39055D02*
Y45945D01*
X159370D01*
X155630Y39055D02*
X159370D01*
X191870Y41299D02*
Y48189D01*
X188130Y41299D02*
Y48189D01*
X191870D01*
X188130Y41299D02*
X191870D01*
X144055Y115630D02*
Y119370D01*
X150945Y115630D02*
Y119370D01*
X144055D02*
X150945D01*
X144055Y115630D02*
X150945D01*
X103130Y58189D02*
X106870D01*
X103130Y51299D02*
X106870D01*
Y58189D01*
X103130Y51299D02*
Y58189D01*
X135630Y58445D02*
X139370D01*
X135630Y51555D02*
X139370D01*
Y58445D01*
X135630Y51555D02*
Y58445D01*
X140630D02*
X144370D01*
X140630Y51555D02*
X144370D01*
Y58445D01*
X140630Y51555D02*
Y58445D01*
X118799Y75630D02*
Y79370D01*
X125689Y75630D02*
Y79370D01*
X118799D02*
X125689D01*
X118799Y75630D02*
X125689D01*
X91299D02*
Y79370D01*
X98189Y75630D02*
Y79370D01*
X91299D02*
X98189D01*
X91299Y75630D02*
X98189D01*
X104370Y151555D02*
Y158445D01*
X100630Y151555D02*
Y158445D01*
X104370D01*
X100630Y151555D02*
X104370D01*
X154705Y60610D02*
Y74390D01*
Y60610D02*
X180295D01*
X154705Y74390D02*
X180295D01*
Y60610D02*
Y74390D01*
D61*
X149990Y165000D02*
X154990Y167500D01*
X149990Y165000D02*
Y170000D01*
X154990Y167500D01*
X159500Y145000D02*
Y170000D01*
Y145000D02*
X179500D01*
Y170000D01*
X159500D02*
X179500D01*
M02*
