G04*
G04 #@! TF.GenerationSoftware,Altium Limited,Altium Designer,22.2.1 (43)*
G04*
G04 Layer_Color=16711935*
%FSLAX25Y25*%
%MOIN*%
G70*
G04*
G04 #@! TF.SameCoordinates,1C25F414-B9C3-4C75-A36B-C8DD24576EA7*
G04*
G04*
G04 #@! TF.FilePolarity,Positive*
G04*
G01*
G75*
%ADD59C,0.00000*%
%ADD60C,0.00394*%
D59*
X0Y5000D02*
X96Y4025D01*
X381Y3087D01*
X843Y2222D01*
X1464Y1464D01*
X2222Y843D01*
X3087Y381D01*
X4025Y96D01*
X5000Y0D01*
X195000D02*
X195975Y96D01*
X196913Y381D01*
X197778Y843D01*
X198536Y1464D01*
X199157Y2222D01*
X199619Y3087D01*
X199904Y4025D01*
X200000Y5000D01*
Y177500D02*
X199904Y178475D01*
X199619Y179413D01*
X199157Y180278D01*
X198536Y181035D01*
X197778Y181657D01*
X196913Y182119D01*
X195975Y182404D01*
X195000Y182500D01*
X5000Y182500D02*
X4025Y182404D01*
X3087Y182119D01*
X2222Y181657D01*
X1464Y181035D01*
X843Y180278D01*
X381Y179413D01*
X96Y178475D01*
X0Y177500D01*
X5000Y0D02*
X195000D01*
X200000Y5000D02*
Y177500D01*
X5000Y182500D02*
X195000Y182500D01*
X0Y5000D02*
Y177500D01*
D60*
X121713Y61594D02*
X123287D01*
X122500Y60807D02*
Y62382D01*
X94213Y61594D02*
X95787D01*
X95000Y60807D02*
Y62382D01*
M02*
