G04*
G04 #@! TF.GenerationSoftware,Altium Limited,Altium Designer,22.2.1 (43)*
G04*
G04 Layer_Color=32896*
%FSLAX25Y25*%
%MOIN*%
G70*
G04*
G04 #@! TF.SameCoordinates,1C25F414-B9C3-4C75-A36B-C8DD24576EA7*
G04*
G04*
G04 #@! TF.FilePolarity,Positive*
G04*
G01*
G75*
%ADD16C,0.01000*%
%ADD53C,0.00800*%
D16*
X191500Y163500D02*
Y167499D01*
X189501D01*
X188834Y166832D01*
Y165499D01*
X189501Y164833D01*
X191500D01*
X190167D02*
X188834Y163500D01*
X185502D02*
X186835D01*
X187501Y164166D01*
Y165499D01*
X186835Y166166D01*
X185502D01*
X184836Y165499D01*
Y164833D01*
X187501D01*
X183503Y166166D02*
X182170Y163500D01*
X180837Y166166D01*
X175505Y163500D02*
X174172D01*
X174839D01*
Y167499D01*
X175505Y166832D01*
X172173Y163500D02*
Y164166D01*
X171506D01*
Y163500D01*
X172173D01*
X168841Y166832D02*
X168174Y167499D01*
X166841D01*
X166175Y166832D01*
Y164166D01*
X166841Y163500D01*
X168174D01*
X168841Y164166D01*
Y166832D01*
X188834Y176832D02*
X189501Y177499D01*
X190833D01*
X191500Y176832D01*
Y176166D01*
X190833Y175499D01*
X189501D01*
X188834Y174833D01*
Y174167D01*
X189501Y173500D01*
X190833D01*
X191500Y174167D01*
X184836Y177499D02*
X187501D01*
Y175499D01*
X186168D01*
X187501D01*
Y173500D01*
X183503D02*
Y177499D01*
X181503D01*
X180837Y176832D01*
Y175499D01*
X181503Y174833D01*
X183503D01*
X175505Y173500D02*
Y176166D01*
X174172Y177499D01*
X172839Y176166D01*
Y173500D01*
Y175499D01*
X175505D01*
X168841Y176166D02*
X170840D01*
X171506Y175499D01*
Y174167D01*
X170840Y173500D01*
X168841D01*
X164842Y176166D02*
X166841D01*
X167508Y175499D01*
Y174167D01*
X166841Y173500D01*
X164842D01*
X161510D02*
X162843D01*
X163509Y174167D01*
Y175499D01*
X162843Y176166D01*
X161510D01*
X160843Y175499D01*
Y174833D01*
X163509D01*
X159510Y173500D02*
X157511D01*
X156844Y174167D01*
X157511Y174833D01*
X158844D01*
X159510Y175499D01*
X158844Y176166D01*
X156844D01*
X155512Y173500D02*
X153512D01*
X152846Y174167D01*
X153512Y174833D01*
X154845D01*
X155512Y175499D01*
X154845Y176166D01*
X152846D01*
X147514Y173500D02*
Y177499D01*
X145515D01*
X144848Y176832D01*
Y175499D01*
X145515Y174833D01*
X147514D01*
X142849Y173500D02*
X141516D01*
X140850Y174167D01*
Y175499D01*
X141516Y176166D01*
X142849D01*
X143516Y175499D01*
Y174167D01*
X142849Y173500D01*
X139517Y176166D02*
Y173500D01*
Y174833D01*
X138850Y175499D01*
X138184Y176166D01*
X137517D01*
X134852Y176832D02*
Y176166D01*
X135518D01*
X134185D01*
X134852D01*
Y174167D01*
X134185Y173500D01*
D53*
X189701Y158299D02*
X190200Y158799D01*
X191200D01*
X191700Y158299D01*
Y157799D01*
X191200Y157299D01*
X190200D01*
X189701Y156800D01*
Y156300D01*
X190200Y155800D01*
X191200D01*
X191700Y156300D01*
X188701Y155800D02*
Y156300D01*
X188201D01*
Y155800D01*
X188701D01*
X186202D02*
Y158799D01*
X185202Y157799D01*
X184202Y158799D01*
Y155800D01*
X182703Y157799D02*
X181703D01*
X181203Y157299D01*
Y155800D01*
X182703D01*
X183203Y156300D01*
X182703Y156800D01*
X181203D01*
X178204Y157799D02*
X179704D01*
X180204Y157299D01*
Y156300D01*
X179704Y155800D01*
X178204D01*
X177205Y158799D02*
Y155800D01*
X175205D01*
X172706D02*
X173706D01*
X174206Y156300D01*
Y157299D01*
X173706Y157799D01*
X172706D01*
X172206Y157299D01*
Y156800D01*
X174206D01*
X171207Y155800D02*
Y157799D01*
X169707D01*
X169207Y157299D01*
Y155800D01*
X168208D02*
Y157799D01*
X166708D01*
X166208Y157299D01*
Y155800D01*
X164709Y157799D02*
X163709D01*
X163209Y157299D01*
Y155800D01*
X164709D01*
X165209Y156300D01*
X164709Y156800D01*
X163209D01*
X162209Y155800D02*
Y157799D01*
X160710D01*
X160210Y157299D01*
Y155800D01*
M02*
