G04*
G04 #@! TF.GenerationSoftware,Altium Limited,Altium Designer,22.2.1 (43)*
G04*
G04 Layer_Color=32896*
%FSLAX25Y25*%
%MOIN*%
G70*
G04*
G04 #@! TF.SameCoordinates,1C25F414-B9C3-4C75-A36B-C8DD24576EA7*
G04*
G04*
G04 #@! TF.FilePolarity,Positive*
G04*
G01*
G75*
%ADD11C,0.00787*%
G36*
X124028Y171435D02*
X125000Y169980D01*
X124596D01*
X124099Y170742D01*
X124096Y170745D01*
X124094Y170750D01*
X124085Y170764D01*
X124075Y170777D01*
X124064Y170797D01*
X124050Y170821D01*
X124034Y170846D01*
X124014Y170876D01*
X123976Y170939D01*
X123933Y171010D01*
X123886Y171086D01*
X123843Y171165D01*
X123840Y171162D01*
X123837Y171157D01*
X123832Y171146D01*
X123821Y171130D01*
X123810Y171113D01*
X123799Y171091D01*
X123783Y171064D01*
X123766Y171037D01*
X123747Y171007D01*
X123725Y170971D01*
X123679Y170897D01*
X123624Y170813D01*
X123567Y170723D01*
X123078Y169980D01*
X122690D01*
X123695Y171435D01*
Y172500D01*
X124028D01*
Y171435D01*
D02*
G37*
G36*
X121659Y170532D02*
X121664Y170537D01*
X121678Y170551D01*
X121702Y170570D01*
X121738Y170597D01*
X121779Y170630D01*
X121830Y170666D01*
X121888Y170704D01*
X121953Y170745D01*
X121956D01*
X121962Y170750D01*
X121970Y170756D01*
X121983Y170761D01*
X122000Y170772D01*
X122019Y170780D01*
X122063Y170805D01*
X122112Y170829D01*
X122166Y170857D01*
X122224Y170881D01*
X122278Y170903D01*
Y170605D01*
X122275Y170603D01*
X122267Y170600D01*
X122254Y170592D01*
X122235Y170584D01*
X122213Y170573D01*
X122185Y170556D01*
X122155Y170540D01*
X122125Y170524D01*
X122054Y170480D01*
X121978Y170428D01*
X121899Y170373D01*
X121825Y170311D01*
X121822Y170308D01*
X121817Y170302D01*
X121806Y170294D01*
X121792Y170281D01*
X121779Y170264D01*
X121759Y170248D01*
X121719Y170201D01*
X121672Y170152D01*
X121626Y170095D01*
X121585Y170035D01*
X121549Y169972D01*
X121350D01*
Y172500D01*
X121659D01*
Y170532D01*
D02*
G37*
G36*
X168887Y16690D02*
Y16687D01*
Y16676D01*
Y16660D01*
Y16638D01*
X168884Y16611D01*
Y16581D01*
X168881Y16545D01*
X168876Y16510D01*
X168868Y16431D01*
X168854Y16349D01*
X168835Y16270D01*
X168821Y16234D01*
X168808Y16199D01*
Y16196D01*
X168805Y16190D01*
X168799Y16182D01*
X168794Y16171D01*
X168775Y16138D01*
X168748Y16100D01*
X168715Y16059D01*
X168674Y16016D01*
X168622Y15975D01*
X168565Y15936D01*
X168562D01*
X168556Y15934D01*
X168548Y15928D01*
X168535Y15923D01*
X168521Y15915D01*
X168502Y15909D01*
X168480Y15901D01*
X168455Y15893D01*
X168398Y15874D01*
X168333Y15860D01*
X168259Y15849D01*
X168177Y15846D01*
X168144D01*
X168122Y15849D01*
X168095Y15852D01*
X168062Y15857D01*
X168027Y15863D01*
X167989Y15871D01*
X167948Y15879D01*
X167907Y15893D01*
X167863Y15906D01*
X167822Y15926D01*
X167778Y15947D01*
X167740Y15972D01*
X167702Y16002D01*
X167666Y16035D01*
X167664Y16037D01*
X167658Y16043D01*
X167650Y16054D01*
X167639Y16070D01*
X167625Y16089D01*
X167612Y16114D01*
X167596Y16144D01*
X167579Y16177D01*
X167566Y16215D01*
X167549Y16256D01*
X167535Y16302D01*
X167522Y16354D01*
X167514Y16409D01*
X167505Y16469D01*
X167500Y16532D01*
Y16600D01*
X167800Y16644D01*
Y16641D01*
Y16630D01*
X167803Y16616D01*
Y16597D01*
X167806Y16573D01*
X167808Y16545D01*
X167817Y16485D01*
X167830Y16420D01*
X167849Y16354D01*
X167860Y16324D01*
X167874Y16294D01*
X167890Y16270D01*
X167907Y16248D01*
X167912Y16242D01*
X167926Y16231D01*
X167948Y16215D01*
X167978Y16196D01*
X168016Y16177D01*
X168062Y16160D01*
X168114Y16149D01*
X168174Y16144D01*
X168196D01*
X168218Y16147D01*
X168248Y16152D01*
X168283Y16158D01*
X168319Y16169D01*
X168354Y16182D01*
X168390Y16201D01*
X168395Y16204D01*
X168406Y16212D01*
X168420Y16226D01*
X168442Y16242D01*
X168461Y16264D01*
X168483Y16291D01*
X168502Y16321D01*
X168518Y16357D01*
X168521Y16362D01*
X168524Y16376D01*
X168529Y16401D01*
X168537Y16433D01*
X168543Y16477D01*
X168548Y16532D01*
X168551Y16594D01*
X168554Y16633D01*
Y16671D01*
Y18407D01*
X168887D01*
Y16690D01*
D02*
G37*
G36*
X170200Y18413D02*
X170230Y18410D01*
X170265Y18404D01*
X170306Y18399D01*
X170347Y18391D01*
X170394Y18380D01*
X170440Y18366D01*
X170489Y18350D01*
X170536Y18331D01*
X170585Y18306D01*
X170631Y18279D01*
X170675Y18249D01*
X170716Y18213D01*
X170719Y18211D01*
X170724Y18205D01*
X170735Y18192D01*
X170749Y18178D01*
X170765Y18159D01*
X170784Y18134D01*
X170803Y18107D01*
X170822Y18074D01*
X170842Y18041D01*
X170861Y18003D01*
X170880Y17962D01*
X170896Y17919D01*
X170910Y17869D01*
X170921Y17820D01*
X170926Y17768D01*
X170929Y17714D01*
Y17711D01*
Y17708D01*
Y17700D01*
Y17689D01*
X170926Y17659D01*
X170921Y17621D01*
X170912Y17574D01*
X170902Y17525D01*
X170888Y17471D01*
X170866Y17416D01*
Y17413D01*
X170863Y17411D01*
X170861Y17402D01*
X170855Y17392D01*
X170839Y17362D01*
X170817Y17323D01*
X170787Y17277D01*
X170751Y17225D01*
X170710Y17170D01*
X170659Y17110D01*
X170656Y17108D01*
X170653Y17102D01*
X170642Y17094D01*
X170631Y17080D01*
X170615Y17064D01*
X170596Y17045D01*
X170574Y17020D01*
X170547Y16996D01*
X170514Y16966D01*
X170478Y16933D01*
X170440Y16895D01*
X170396Y16857D01*
X170350Y16813D01*
X170298Y16769D01*
X170241Y16720D01*
X170181Y16668D01*
X170178Y16665D01*
X170170Y16657D01*
X170153Y16646D01*
X170137Y16630D01*
X170113Y16611D01*
X170088Y16589D01*
X170031Y16540D01*
X169971Y16488D01*
X169913Y16433D01*
X169886Y16409D01*
X169861Y16387D01*
X169840Y16365D01*
X169823Y16349D01*
X169820Y16346D01*
X169809Y16335D01*
X169796Y16319D01*
X169777Y16297D01*
X169755Y16272D01*
X169733Y16245D01*
X169689Y16185D01*
X170932D01*
Y15887D01*
X169264D01*
Y15893D01*
Y15906D01*
Y15928D01*
X169266Y15956D01*
X169269Y15988D01*
X169277Y16024D01*
X169285Y16062D01*
X169299Y16100D01*
Y16103D01*
X169302Y16108D01*
X169305Y16117D01*
X169310Y16130D01*
X169318Y16144D01*
X169326Y16163D01*
X169348Y16207D01*
X169376Y16259D01*
X169411Y16316D01*
X169452Y16376D01*
X169501Y16436D01*
X169504Y16439D01*
X169507Y16444D01*
X169515Y16453D01*
X169528Y16466D01*
X169542Y16480D01*
X169561Y16499D01*
X169580Y16521D01*
X169605Y16545D01*
X169632Y16573D01*
X169662Y16600D01*
X169695Y16633D01*
X169733Y16665D01*
X169771Y16701D01*
X169815Y16736D01*
X169859Y16775D01*
X169908Y16816D01*
X169913Y16818D01*
X169927Y16832D01*
X169946Y16848D01*
X169973Y16873D01*
X170006Y16900D01*
X170044Y16933D01*
X170088Y16968D01*
X170132Y17009D01*
X170224Y17094D01*
X170315Y17184D01*
X170358Y17228D01*
X170399Y17271D01*
X170435Y17312D01*
X170465Y17351D01*
X170467Y17353D01*
X170470Y17359D01*
X170478Y17370D01*
X170487Y17383D01*
X170500Y17402D01*
X170511Y17422D01*
X170538Y17471D01*
X170566Y17528D01*
X170590Y17591D01*
X170607Y17656D01*
X170609Y17689D01*
X170612Y17722D01*
Y17725D01*
Y17730D01*
Y17741D01*
X170609Y17752D01*
Y17768D01*
X170604Y17787D01*
X170596Y17828D01*
X170579Y17877D01*
X170555Y17929D01*
X170541Y17957D01*
X170522Y17981D01*
X170503Y18006D01*
X170478Y18030D01*
X170476Y18033D01*
X170473Y18036D01*
X170465Y18041D01*
X170454Y18049D01*
X170440Y18060D01*
X170424Y18071D01*
X170386Y18096D01*
X170334Y18118D01*
X170276Y18140D01*
X170208Y18153D01*
X170170Y18159D01*
X170110D01*
X170094Y18156D01*
X170074D01*
X170053Y18150D01*
X170003Y18142D01*
X169946Y18126D01*
X169886Y18101D01*
X169856Y18085D01*
X169826Y18069D01*
X169799Y18047D01*
X169771Y18022D01*
X169769Y18020D01*
X169766Y18017D01*
X169760Y18009D01*
X169749Y17998D01*
X169741Y17984D01*
X169730Y17968D01*
X169717Y17948D01*
X169706Y17927D01*
X169692Y17902D01*
X169681Y17875D01*
X169659Y17809D01*
X169643Y17738D01*
X169640Y17697D01*
X169638Y17654D01*
X169321Y17686D01*
Y17692D01*
X169324Y17703D01*
X169326Y17719D01*
X169329Y17744D01*
X169334Y17774D01*
X169343Y17809D01*
X169351Y17848D01*
X169365Y17888D01*
X169378Y17929D01*
X169395Y17976D01*
X169416Y18020D01*
X169438Y18063D01*
X169466Y18110D01*
X169496Y18150D01*
X169528Y18192D01*
X169567Y18227D01*
X169569Y18230D01*
X169578Y18235D01*
X169588Y18243D01*
X169605Y18257D01*
X169627Y18271D01*
X169654Y18287D01*
X169684Y18303D01*
X169719Y18323D01*
X169758Y18339D01*
X169801Y18355D01*
X169848Y18372D01*
X169900Y18385D01*
X169954Y18399D01*
X170012Y18407D01*
X170074Y18413D01*
X170140Y18415D01*
X170175D01*
X170200Y18413D01*
D02*
G37*
D11*
X132480Y166398D02*
Y178602D01*
X117520D02*
X132480D01*
X117520Y166398D02*
Y178602D01*
Y166398D02*
X132480D01*
X142697Y32146D02*
X192303D01*
Y-453D02*
Y32146D01*
X142697Y-453D02*
X192303D01*
X142697D02*
Y32146D01*
M02*
